P2
1 2
255
162
139
